<svg width="836" height="335" viewBox="0 0 836 335" fill="none" xmlns="http://www.w3.org/2000/svg">
<path d="M68.96 118.34H120.908V128.848H68.96V118.34ZM68.96 72.608H120.908V82.524H68.96V72.608ZM64.52 27.616H126.088V135.952H115.58V37.976H74.732V136.84H64.52V27.616ZM90.568 0.38399L101.964 2.15999C100.583 7.488 99.1027 12.964 97.524 18.588C95.9453 24.212 94.416 28.9973 92.936 32.944L83.168 31.168C84.056 28.3067 84.9933 25.1 85.98 21.548C86.9667 17.8973 87.8547 14.2467 88.644 10.596C89.532 6.84666 90.1733 3.44266 90.568 0.38399ZM22.784 0.827993H33.144V136.84H22.784V0.827993ZM1.916 28.8H50.756V38.716H10.796V106.5H1.916V28.8ZM46.02 28.8H54.9V94.66C54.9 96.8307 54.6533 98.7053 54.16 100.284C53.7653 101.764 52.8773 102.997 51.496 103.984C50.1147 104.872 48.4373 105.415 46.464 105.612C44.4907 105.809 42.024 105.908 39.064 105.908C38.9653 104.625 38.62 102.997 38.028 101.024C37.5347 99.0507 36.992 97.3733 36.4 95.992C38.3733 96.0907 40.0507 96.14 41.432 96.14C42.912 96.14 43.948 96.0907 44.54 95.992C45.5267 95.992 46.02 95.4987 46.02 94.512V28.8ZM194.464 64.024C201.371 80.7973 212.224 94.512 227.024 105.168C241.824 115.824 260.176 123.076 282.08 126.924C281.291 127.713 280.452 128.7 279.564 129.884C278.676 131.167 277.837 132.4 277.048 133.584C276.259 134.867 275.617 136.051 275.124 137.136C260.028 134.077 246.609 129.489 234.868 123.372C223.225 117.255 213.211 109.509 204.824 100.136C196.437 90.664 189.58 79.6133 184.252 66.984L194.464 64.024ZM167.824 20.956H267.428V31.612H167.824V20.956ZM169.748 58.844H257.956V69.204H169.748V58.844ZM212.372 0.531997H223.768V62.988H212.372V0.531997ZM161.904 20.956H173.004V57.66C173.004 63.3827 172.757 69.648 172.264 76.456C171.869 83.264 170.981 90.22 169.6 97.324C168.219 104.329 166.196 111.187 163.532 117.896C160.967 124.507 157.563 130.624 153.32 136.248C152.728 135.459 151.84 134.571 150.656 133.584C149.571 132.696 148.436 131.808 147.252 130.92C146.167 130.032 145.18 129.391 144.292 128.996C148.337 123.767 151.495 118.143 153.764 112.124C156.132 106.007 157.908 99.7907 159.092 93.476C160.276 87.1613 161.016 80.9453 161.312 74.828C161.707 68.612 161.904 62.84 161.904 57.512V20.956ZM264.764 20.956H266.688L268.76 20.364L277.196 22.732C275.124 28.1587 272.855 33.7333 270.388 39.456C268.02 45.1787 265.701 49.964 263.432 53.812L253.22 50.704C255.292 47.152 257.364 42.8107 259.436 37.68C261.508 32.4507 263.284 27.468 264.764 22.732V20.956ZM255.292 58.844H257.66L259.88 58.4L267.132 62.396C263.383 73.2493 258.351 82.7707 252.036 90.96C245.82 99.1493 238.617 106.253 230.428 112.272C222.239 118.192 213.359 123.125 203.788 127.072C194.217 131.117 184.203 134.324 173.744 136.692C173.349 135.705 172.757 134.571 171.968 133.288C171.277 132.005 170.488 130.723 169.6 129.44C168.811 128.256 168.021 127.269 167.232 126.48C177.395 124.408 187.064 121.645 196.24 118.192C205.515 114.64 214 110.249 221.696 105.02C229.491 99.692 236.2 93.4267 241.824 86.224C247.547 78.9227 252.036 70.4867 255.292 60.916V58.844ZM312.42 11.928H412.616V23.176H312.42V11.928ZM296.288 56.328H428.008V67.724H296.288V56.328ZM343.204 63.136L356.376 66.54C353.909 72.8547 351.147 79.4653 348.088 86.372C345.128 93.2787 342.069 99.9387 338.912 106.352C335.853 112.765 332.844 118.389 329.884 123.224L319.524 119.82C321.596 116.071 323.717 111.877 325.888 107.24C328.157 102.504 330.328 97.5707 332.4 92.44C334.571 87.3093 336.544 82.228 338.32 77.196C340.195 72.164 341.823 67.4773 343.204 63.136ZM297.768 117.6C304.872 117.403 312.963 117.156 322.04 116.86C331.117 116.564 340.787 116.268 351.048 115.972C361.309 115.676 371.867 115.331 382.72 114.936C393.573 114.541 404.279 114.147 414.836 113.752L414.392 124.26C403.933 124.753 393.425 125.247 382.868 125.74C372.311 126.233 361.951 126.677 351.788 127.072C341.724 127.565 332.153 128.009 323.076 128.404C314.097 128.799 305.957 129.095 298.656 129.292L297.768 117.6ZM381.24 86.668L391.748 81.636C396.484 86.5693 401.171 91.996 405.808 97.916C410.544 103.836 414.836 109.657 418.684 115.38C422.532 121.103 425.591 126.283 427.86 130.92L416.76 137.136C414.589 132.499 411.58 127.22 407.732 121.3C403.884 115.38 399.641 109.411 395.004 103.392C390.465 97.2747 385.877 91.7 381.24 86.668ZM467.376 12.964H478.328V136.544H467.376V12.964ZM442.364 42.416H500.232V52.776H442.364V42.416ZM467.968 46.412L474.924 49.372C473.444 54.6013 471.619 60.028 469.448 65.652C467.277 71.1773 464.909 76.7027 462.344 82.228C459.877 87.6547 457.213 92.7853 454.352 97.62C451.589 102.356 448.777 106.401 445.916 109.756C445.324 108.276 444.436 106.549 443.252 104.576C442.167 102.603 441.131 100.925 440.144 99.544C442.907 96.584 445.62 93.032 448.284 88.888C450.948 84.744 453.513 80.2547 455.98 75.42C458.545 70.5853 460.864 65.7013 462.936 60.768C465.008 55.736 466.685 50.9507 467.968 46.412ZM491.056 2.75199L497.864 11.632C493.325 13.408 488.195 15.036 482.472 16.516C476.749 17.996 470.829 19.328 464.712 20.512C458.595 21.5973 452.675 22.5347 446.952 23.324C446.755 22.14 446.311 20.7093 445.62 19.032C445.028 17.3547 444.436 15.924 443.844 14.74C449.369 13.7533 455.043 12.668 460.864 11.484C466.784 10.3 472.359 8.96799 477.588 7.488C482.916 5.90933 487.405 4.33066 491.056 2.75199ZM477.588 54.7C478.575 55.7853 480.055 57.5613 482.028 60.028C484.1 62.396 486.271 65.0107 488.54 67.872C490.809 70.6347 492.881 73.2987 494.756 75.864C496.729 78.3307 498.111 80.1067 498.9 81.192L492.092 89.776C491.204 88 489.872 85.7307 488.096 82.968C486.419 80.1067 484.544 77.1467 482.472 74.088C480.499 71.0293 478.575 68.168 476.7 65.504C474.924 62.84 473.493 60.8173 472.408 59.436L477.588 54.7ZM548.776 0.531997H559.728V136.544H548.776V0.531997ZM498.456 96.88L577.192 84.3L578.82 94.512L500.084 107.536L498.456 96.88ZM510.444 17.404L517.548 10.892C520.508 12.7667 523.517 14.888 526.576 17.256C529.733 19.624 532.644 22.0413 535.308 24.508C537.972 26.9747 540.143 29.244 541.82 31.316L534.124 38.42C532.644 36.4467 530.572 34.2267 527.908 31.76C525.343 29.1947 522.531 26.6787 519.472 24.212C516.413 21.6467 513.404 19.3773 510.444 17.404ZM504.524 56.032L511.48 49.52C514.637 51.3947 517.943 53.5653 521.396 56.032C524.849 58.4987 528.056 61.0147 531.016 63.58C533.976 66.0467 536.344 68.3653 538.12 70.536L530.72 77.788C528.944 75.6173 526.576 73.2493 523.616 70.684C520.755 68.02 517.647 65.4053 514.292 62.84C510.937 60.2747 507.681 58.0053 504.524 56.032ZM639.944 23.916H721.492V34.276H639.944V23.916ZM642.904 56.624H708.172V66.836H642.904V56.624ZM674.872 0.679995H685.824V62.396H674.872V0.679995ZM657.26 64.024C662.884 79.6133 671.567 92.9333 683.308 103.984C695.049 115.035 709.553 122.829 726.82 127.368C726.031 128.157 725.143 129.095 724.156 130.18C723.268 131.364 722.429 132.548 721.64 133.732C720.851 134.916 720.16 136.001 719.568 136.988C701.808 131.66 686.909 123.027 674.872 111.088C662.933 99.1493 653.757 84.448 647.344 66.984L657.26 64.024ZM707.284 56.624H709.356L711.428 56.18L718.532 59.288C715.375 69.8453 711.083 79.3173 705.656 87.704C700.229 96.0907 693.915 103.491 686.712 109.904C679.608 116.219 671.863 121.596 663.476 126.036C655.188 130.476 646.505 134.028 637.428 136.692C637.033 135.705 636.491 134.571 635.8 133.288C635.208 132.104 634.517 130.871 633.728 129.588C632.939 128.404 632.149 127.467 631.36 126.776C639.845 124.507 648.035 121.399 655.928 117.452C663.92 113.505 671.271 108.72 677.98 103.096C684.788 97.3733 690.708 90.812 695.74 83.412C700.772 75.9133 704.62 67.6253 707.284 58.548V56.624ZM589.476 78.972C593.62 77.9853 598.307 76.8013 603.536 75.42C608.765 73.94 614.291 72.4107 620.112 70.832C626.032 69.1547 631.903 67.4773 637.724 65.8L639.204 76.012C631.113 78.4787 622.973 80.896 614.784 83.264C606.693 85.632 599.343 87.8027 592.732 89.776L589.476 78.972ZM591.252 30.576H637.724V41.084H591.252V30.576ZM610.344 0.679995H621.296V123.372C621.296 126.529 620.901 128.947 620.112 130.624C619.323 132.301 617.941 133.584 615.968 134.472C613.995 135.36 611.38 135.903 608.124 136.1C604.967 136.396 600.823 136.495 595.692 136.396C595.495 135.015 595.051 133.337 594.36 131.364C593.669 129.489 592.979 127.763 592.288 126.184C595.741 126.283 598.899 126.332 601.76 126.332C604.621 126.332 606.545 126.332 607.532 126.332C609.407 126.332 610.344 125.345 610.344 123.372V0.679995ZM91.6477 230H78.6136C77.8428 226.251 76.4939 222.957 74.5668 220.119C72.6747 217.281 70.3622 214.899 67.6293 212.972C64.9313 211.009 61.9356 209.538 58.642 208.557C55.3485 207.576 51.9148 207.085 48.3409 207.085C41.8239 207.085 35.92 208.732 30.6293 212.026C25.3736 215.319 21.1866 220.172 18.0682 226.584C14.9849 232.996 13.4432 240.862 13.4432 250.182C13.4432 259.502 14.9849 267.368 18.0682 273.78C21.1866 280.192 25.3736 285.045 30.6293 288.338C35.92 291.632 41.8239 293.278 48.3409 293.278C51.9148 293.278 55.3485 292.788 58.642 291.807C61.9356 290.826 64.9313 289.372 67.6293 287.445C70.3622 285.482 72.6747 283.082 74.5668 280.244C76.4939 277.371 77.8428 274.078 78.6136 270.364H91.6477C90.6667 275.865 88.8797 280.787 86.2869 285.132C83.6941 289.477 80.4707 293.173 76.6165 296.222C72.7623 299.235 68.4351 301.53 63.6349 303.107C58.8698 304.683 53.7718 305.472 48.3409 305.472C39.161 305.472 30.9972 303.229 23.8494 298.744C16.7017 294.259 11.0781 287.883 6.97869 279.614C2.87926 271.345 0.829546 261.534 0.829546 250.182C0.829546 238.83 2.87926 229.019 6.97869 220.75C11.0781 212.481 16.7017 206.104 23.8494 201.619C30.9972 197.134 39.161 194.892 48.3409 194.892C53.7718 194.892 58.8698 195.68 63.6349 197.257C68.4351 198.834 72.7623 201.146 76.6165 204.195C80.4707 207.208 83.6941 210.887 86.2869 215.232C88.8797 219.541 90.6667 224.464 91.6477 230ZM123.431 196.364V304H111.028V196.364H123.431ZM178.945 305.682C171.657 305.682 165.262 303.947 159.761 300.479C154.295 297.01 150.021 292.157 146.938 285.92C143.889 279.684 142.365 272.396 142.365 264.057C142.365 255.648 143.889 248.307 146.938 242.036C150.021 235.764 154.295 230.893 159.761 227.425C165.262 223.956 171.657 222.222 178.945 222.222C186.232 222.222 192.609 223.956 198.075 227.425C203.576 230.893 207.851 235.764 210.899 242.036C213.982 248.307 215.524 255.648 215.524 264.057C215.524 272.396 213.982 279.684 210.899 285.92C207.851 292.157 203.576 297.01 198.075 300.479C192.609 303.947 186.232 305.682 178.945 305.682ZM178.945 294.54C184.481 294.54 189.036 293.121 192.609 290.283C196.183 287.445 198.829 283.713 200.545 279.088C202.262 274.463 203.121 269.453 203.121 264.057C203.121 258.661 202.262 253.633 200.545 248.973C198.829 244.313 196.183 240.546 192.609 237.673C189.036 234.8 184.481 233.364 178.945 233.364C173.409 233.364 168.854 234.8 165.28 237.673C161.706 240.546 159.061 244.313 157.344 248.973C155.627 253.633 154.768 258.661 154.768 264.057C154.768 269.453 155.627 274.463 157.344 279.088C159.061 283.713 161.706 287.445 165.28 290.283C168.854 293.121 173.409 294.54 178.945 294.54ZM285.333 270.994V223.273H297.736V304H285.333V290.335H284.492C282.6 294.435 279.657 297.921 275.662 300.794C271.668 303.632 266.623 305.051 260.526 305.051C255.48 305.051 250.996 303.947 247.071 301.74C243.147 299.498 240.064 296.134 237.821 291.649C235.579 287.129 234.458 281.436 234.458 274.568V223.273H246.861V273.727C246.861 279.614 248.508 284.309 251.801 287.812C255.13 291.316 259.37 293.068 264.52 293.068C267.604 293.068 270.739 292.28 273.928 290.703C277.151 289.126 279.849 286.709 282.022 283.45C284.229 280.192 285.333 276.04 285.333 270.994ZM350.937 305.682C344.21 305.682 338.271 303.982 333.12 300.584C327.969 297.15 323.94 292.315 321.032 286.078C318.124 279.806 316.67 272.396 316.67 263.847C316.67 255.367 318.124 248.009 321.032 241.773C323.94 235.536 327.987 230.718 333.173 227.32C338.358 223.921 344.35 222.222 351.147 222.222C356.403 222.222 360.555 223.098 363.603 224.849C366.686 226.566 369.034 228.528 370.646 230.736C372.292 232.908 373.571 234.695 374.482 236.097H375.533V196.364H387.937V304H375.954V291.597H374.482C373.571 293.068 372.275 294.925 370.593 297.168C368.911 299.375 366.511 301.355 363.393 303.107C360.274 304.823 356.122 305.682 350.937 305.682ZM352.619 294.54C357.594 294.54 361.799 293.243 365.232 290.651C368.666 288.023 371.276 284.396 373.063 279.771C374.85 275.111 375.744 269.733 375.744 263.636C375.744 257.61 374.868 252.337 373.116 247.817C371.364 243.262 368.771 239.723 365.337 237.2C361.904 234.643 357.664 233.364 352.619 233.364C347.363 233.364 342.983 234.713 339.479 237.411C336.011 240.073 333.4 243.7 331.648 248.29C329.932 252.845 329.073 257.96 329.073 263.636C329.073 269.383 329.949 274.603 331.701 279.298C333.488 283.958 336.116 287.672 339.585 290.44C343.088 293.173 347.433 294.54 352.619 294.54ZM414.058 304V196.364H450.427C458.871 196.364 465.773 197.888 471.134 200.936C476.53 203.949 480.524 208.031 483.117 213.182C485.71 218.332 487.006 224.079 487.006 230.42C487.006 236.762 485.71 242.526 483.117 247.712C480.559 252.897 476.6 257.032 471.239 260.115C465.879 263.163 459.011 264.688 450.637 264.688H424.569V253.125H450.217C455.998 253.125 460.64 252.126 464.144 250.129C467.648 248.132 470.188 245.434 471.765 242.036C473.377 238.602 474.183 234.73 474.183 230.42C474.183 226.111 473.377 222.257 471.765 218.858C470.188 215.459 467.63 212.796 464.092 210.869C460.553 208.907 455.858 207.926 450.006 207.926H427.092V304H414.058ZM557.196 270.994V223.273H569.599V304H557.196V290.335H556.355C554.463 294.435 551.52 297.921 547.526 300.794C543.531 303.632 538.486 305.051 532.389 305.051C527.344 305.051 522.859 303.947 518.935 301.74C515.01 299.498 511.927 296.134 509.685 291.649C507.442 287.129 506.321 281.436 506.321 274.568V223.273H518.724V273.727C518.724 279.614 520.371 284.309 523.665 287.812C526.993 291.316 531.233 293.068 536.384 293.068C539.467 293.068 542.603 292.28 545.791 290.703C549.015 289.126 551.713 286.709 553.885 283.45C556.092 280.192 557.196 276.04 557.196 270.994ZM592.317 334.273V223.273H604.3V236.097H605.772C606.683 234.695 607.944 232.908 609.556 230.736C611.203 228.528 613.55 226.566 616.598 224.849C619.682 223.098 623.851 222.222 629.107 222.222C635.904 222.222 641.896 223.921 647.081 227.32C652.267 230.718 656.314 235.536 659.222 241.773C662.13 248.009 663.584 255.367 663.584 263.847C663.584 272.396 662.13 279.806 659.222 286.078C656.314 292.315 652.284 297.15 647.134 300.584C641.983 303.982 636.044 305.682 629.317 305.682C624.132 305.682 619.98 304.823 616.861 303.107C613.743 301.355 611.343 299.375 609.661 297.168C607.979 294.925 606.683 293.068 605.772 291.597H604.721V334.273H592.317ZM604.51 263.636C604.51 269.733 605.404 275.111 607.191 279.771C608.978 284.396 611.588 288.023 615.022 290.651C618.455 293.243 622.66 294.54 627.635 294.54C632.821 294.54 637.148 293.173 640.617 290.44C644.121 287.672 646.748 283.958 648.5 279.298C650.287 274.603 651.181 269.383 651.181 263.636C651.181 257.96 650.305 252.845 648.553 248.29C646.836 243.7 644.226 240.073 640.722 237.411C637.253 234.713 632.891 233.364 627.635 233.364C622.59 233.364 618.35 234.643 614.917 237.2C611.483 239.723 608.89 243.262 607.138 247.817C605.386 252.337 604.51 257.61 604.51 263.636ZM682.505 334.273V223.273H694.488V236.097H695.959C696.87 234.695 698.132 232.908 699.743 230.736C701.39 228.528 703.738 226.566 706.786 224.849C709.869 223.098 714.039 222.222 719.294 222.222C726.092 222.222 732.083 223.921 737.269 227.32C742.454 230.718 746.501 235.536 749.409 241.773C752.318 248.009 753.772 255.367 753.772 263.847C753.772 272.396 752.318 279.806 749.409 286.078C746.501 292.315 742.472 297.15 737.321 300.584C732.171 303.982 726.232 305.682 719.505 305.682C714.319 305.682 710.167 304.823 707.049 303.107C703.93 301.355 701.53 299.375 699.848 297.168C698.167 294.925 696.87 293.068 695.959 291.597H694.908V334.273H682.505ZM694.698 263.636C694.698 269.733 695.591 275.111 697.378 279.771C699.165 284.396 701.775 288.023 705.209 290.651C708.643 293.243 712.847 294.54 717.823 294.54C723.008 294.54 727.336 293.173 730.804 290.44C734.308 287.672 736.936 283.958 738.688 279.298C740.475 274.603 741.368 269.383 741.368 263.636C741.368 257.96 740.492 252.845 738.74 248.29C737.024 243.7 734.413 240.073 730.909 237.411C727.441 234.713 723.078 233.364 717.823 233.364C712.777 233.364 708.538 234.643 705.104 237.2C701.67 239.723 699.078 243.262 697.326 247.817C695.574 252.337 694.698 257.61 694.698 263.636ZM777.79 334.273C775.688 334.273 773.813 334.098 772.167 333.747C770.52 333.432 769.381 333.116 768.75 332.801L771.904 321.869C774.917 322.64 777.58 322.92 779.892 322.71C782.205 322.5 784.255 321.466 786.042 319.609C787.864 317.787 789.528 314.827 791.034 310.727L793.347 304.42L763.495 223.273H776.949L799.233 287.602H800.074L822.358 223.273H835.813L801.546 315.773C800.004 319.942 798.095 323.393 795.817 326.126C793.54 328.894 790.894 330.944 787.881 332.276C784.903 333.607 781.539 334.273 777.79 334.273Z" fill="white"/>
</svg>
