<svg xmlns:xlink="http://www.w3.org/1999/xlink" xmlns="http://www.w3.org/2000/svg" version="1.1" viewBox="0.0 0.0 960.0 540.0" fill="none" stroke="none" stroke-linecap="square" stroke-miterlimit="10"><clipPath id="g21c135efa20_0_0.0"><path d="m0 0l960.0 0l0 540.0l-960.0 0l0 -540.0z" clip-rule="nonzero"/></clipPath><g clip-path="url(#g21c135efa20_0_0.0)"><path fill="#000000" fill-opacity="0.0" d="m0 0l960.0 0l0 540.0l-960.0 0z" fill-rule="evenodd"/><path fill="#000000" fill-opacity="0.0" d="m0 113.08399l960.0 0l0 242.3937l-960.0 0z" fill-rule="evenodd"/><path fill="#ffffff" d="m42.453735 263.396l0 -131.75002l24.828125 0l0 131.75002l-24.828125 0zm51.703506 0l0 -93.843765l22.625 0l0 11.78125l1.46875 0q2.953125 -4.421875 7.171875 -7.734375q4.234375 -3.3125 9.65625 -5.140625q5.4375 -1.84375 11.703125 -1.84375q10.296875 0 17.5625 4.78125q7.265625 4.78125 10.21875 11.78125q4.234375 -6.8125 12.046875 -11.6875q7.828125 -4.875 19.40625 -4.875q16.390625 0 24.578125 9.9375q8.1875 9.9375 8.1875 26.484375l0 60.35939l-23.921875 0l0 -55.937515q0 -9.015625 -4.234375 -13.703125q-4.234375 -4.703125 -11.40625 -4.703125q-6.265625 0 -10.953125 3.40625q-4.6875 3.40625 -7.171875 9.484375q-2.484375 6.0625 -2.484375 14.171875l0 47.281265l-24.109375 0l0 -55.937515q0 -9.015625 -4.328125 -13.703125q-4.3125 -4.703125 -12.234375 -4.703125q-5.875 0 -10.390625 3.40625q-4.515625 3.40625 -6.90625 9.484375q-2.390625 6.0625 -2.390625 14.171875l0 47.281265l-24.09375 0zm209.75438 42.6875q-12.703125 0 -22.0 -3.953125q-9.28125 -3.953125 -15.171875 -10.21875q-5.890625 -6.25 -8.28125 -13.0625l22.640625 -9.203125q2.9375 6.8125 8.921875 10.953125q5.984375 4.140625 13.890625 4.140625q11.21875 0 18.03125 -6.90625q6.8125 -6.890625 6.8125 -19.953125l0 -7.3593903l-1.46875 0q-4.421875 6.2500153 -11.609375 9.562515q-7.171875 3.3125 -16.359375 3.3125q-11.40625 0 -21.4375 -5.890625q-10.03125 -5.8906403 -16.203125 -16.73439q-6.1562347 -10.859375 -6.1562347 -25.765625q0 -15.09375 6.1562347 -25.859375q6.171875 -10.765625 16.203125 -16.640625q10.03125 -5.890625 21.4375 -5.890625q9.1875 0 16.359375 3.21875q7.1875 3.21875 11.609375 9.65625l1.46875 0l0 -9.9375l23.1875 0l0 87.406265q0 15.078125 -5.890625 26.125q-5.890625 11.046875 -16.65625 17.015625q-10.765625 5.984375 -25.484375 5.984375zm0.375 -64.57814q6.4375 0 12.046875 -3.03125q5.609375 -3.046875 9.015625 -9.015625q3.40625 -5.984375 3.40625 -14.453125q0 -8.828125 -3.40625 -14.71875q-3.40625 -5.890625 -9.015625 -8.828125q-5.609375 -2.953125 -12.046875 -2.953125q-6.453125 0 -12.15625 2.953125q-5.703125 2.9375 -9.109375 8.828125q-3.390625 5.890625 -3.390625 14.71875q0 8.640625 3.390625 14.625q3.40625 5.984375 9.109375 8.9375q5.703125 2.9375 12.15625 2.9375zm114.25354 24.82814q-11.21875 0 -21.0625 -4.21875q-9.84375 -4.234375 -17.109375 -12.60939q-7.265625 -8.375 -10.953125 -20.515625l23.375 -9.203125q2.5625 9.75 9.0 16.375q6.453125 6.625 16.9375 6.625q5.15625 0 9.75 -1.75q4.609375 -1.75 7.453125 -5.234375q2.859375 -3.5 2.859375 -8.65625q0 -4.96875 -2.40625 -8.546875q-2.390625 -3.59375 -8.0 -6.8125q-5.609375 -3.21875 -15.171875 -6.71875l-8.09375 -2.9375q-5.34375 -2.03125 -10.78125 -5.0625q-5.421875 -3.046875 -9.9375 -7.546875q-4.5 -4.515625 -7.265625 -10.390625q-2.75 -5.890625 -2.75 -13.4375q0 -10.3125 5.328125 -18.671875q5.34375 -8.375 14.90625 -13.34375q9.578125 -4.96875 22.265625 -4.96875q13.25 0 21.890625 4.515625q8.65625 4.5 13.53125 10.9375q4.875 6.4375 6.90625 12.515625l-21.90625 9.203125q-1.09375 -3.6875 -3.671875 -7.0q-2.578125 -3.3125 -6.625 -5.328125q-4.046875 -2.03125 -9.75 -2.03125q-5.34375 0 -9.578125 1.75q-4.21875 1.75 -6.625 4.796875q-2.390625 3.03125 -2.390625 7.078125q0 5.875 5.0625 10.109375q5.0625 4.234375 16.28125 7.921875l8.28125 2.75q7.0 2.390625 13.34375 5.625q6.34375 3.21875 11.3125 8.0q4.96875 4.78125 7.8125 11.40625q2.859375 6.625 2.859375 15.828125q0 10.109375 -4.046875 17.65625q-4.046875 7.546875 -10.671875 12.32814q-6.625 4.78125 -14.625 7.171875q-8.0 2.390625 -15.734375 2.390625zm54.104126 -96.781265l63.46875 0l0 20.609375l-63.46875 0l0 -20.609375zm16.375 63.859375l0 -90.359375l24.09375 0l0 85.9375q0 6.4375 2.765625 9.84375q2.765625 3.40625 9.203125 3.40625q3.671875 0 6.15625 -1.109375q2.484375 -1.109375 5.625 -2.9375l0 23.54689q-3.875 1.46875 -8.015625 2.296875q-4.140625 0.828125 -8.734375 0.828125q-14.53125 0 -22.8125 -8.359375q-8.28125 -8.375015 -8.28125 -23.093765zm101.00574 32.92189q-17.28125 0 -25.9375 -10.67189q-8.640625 -10.671875 -8.640625 -29.0625l0 -57.046875l24.09375 0l0 54.09375q0 9.578125 4.6875 15.015625q4.703125 5.421875 12.0625 5.421875q7.171875 0 12.140625 -3.59375q4.96875 -3.59375 7.640625 -9.65625q2.671875 -6.078125 2.671875 -13.4375l0 -47.84375l24.09375 0l0 93.843765l-22.625 0l0 -11.781265l-1.46875 0q-2.765625 4.4218903 -7.1875 7.7343903q-4.40625 3.3125 -9.84375 5.140625q-5.421875 1.84375 -11.6875 1.84375zm115.749146 0q-12.890625 0 -23.203125 -6.34375q-10.296875 -6.3437653 -16.28125 -17.562515q-5.96875 -11.234375 -5.96875 -25.953125q0 -14.71875 5.96875 -25.9375q5.984375 -11.234375 16.28125 -17.578125q10.3125 -6.34375 23.203125 -6.34375q6.796875 0 12.3125 2.03125q5.53125 2.015625 9.578125 5.328125q4.046875 3.3125 6.25 6.984375l1.484375 0l-1.484375 -13.25l0 -36.0625l23.921875 0l0 131.75002l-22.4375 0l0 -11.218765l-1.484375 0q-2.203125 3.671875 -6.25 6.8906403q-4.046875 3.21875 -9.578125 5.234375q-5.515625 2.03125 -12.3125 2.03125zm4.046875 -22.250015q6.796875 0 12.59375 -3.5q5.796875 -3.5 9.390625 -9.65625q3.59375 -6.171875 3.59375 -14.453125q0 -8.28125 -3.59375 -14.4375q-3.59375 -6.171875 -9.390625 -9.578125q-5.796875 -3.40625 -12.59375 -3.40625q-6.625 0 -12.421875 3.40625q-5.796875 3.40625 -9.390625 9.484375q-3.578125 6.0625 -3.578125 14.53125q0 8.28125 3.578125 14.546875q3.59375 6.25 9.390625 9.65625q5.796875 3.40625 12.421875 3.40625zm73.229004 19.312515l0 -93.843765l24.109375 0l0 93.843765l-24.109375 0zm12.140625 -104.14064q-6.4375 0 -11.046875 -4.59375q-4.59375 -4.609375 -4.59375 -11.046875q0 -6.4375 4.59375 -10.9375q4.609375 -4.515625 11.046875 -4.515625q6.4375 0 10.9375 4.515625q4.515625 4.5 4.515625 10.9375q0 6.4375 -4.515625 11.046875q-4.5 4.59375 -10.9375 4.59375zm80.96124 107.07814q-14.71875 0 -26.046875 -6.53125q-11.3125 -6.5312653 -17.65625 -17.843765q-6.34375 -11.3125 -6.34375 -25.484375q0 -14.171875 6.34375 -25.484375q6.34375 -11.3125 17.65625 -17.84375q11.328125 -6.53125 26.046875 -6.53125q14.71875 0 25.9375 6.625q11.234375 6.625 17.578125 17.84375q6.34375 11.21875 6.34375 25.390625q0 14.171875 -6.34375 25.484375q-6.34375 11.3125 -17.578125 17.843765q-11.21875 6.53125 -25.9375 6.53125zm0 -22.437515q6.984375 0 12.78125 -3.21875q5.796875 -3.21875 9.390625 -9.375q3.59375 -6.171875 3.59375 -14.828125q0 -8.640625 -3.59375 -14.71875q-3.59375 -6.078125 -9.390625 -9.390625q-5.796875 -3.3125 -12.59375 -3.3125q-7.0 0 -12.984375 3.3125q-5.96875 3.3125 -9.5625 9.390625q-3.578125 6.078125 -3.578125 14.71875q0 8.65625 3.578125 14.828125q3.59375 6.15625 9.5625 9.375q5.984375 3.21875 12.796875 3.21875z" fill-rule="nonzero"/><path fill="#000000" fill-opacity="0.0" d="m18.73491 32.157482l652.6299 0l0 126.04724l-652.6299 0z" fill-rule="evenodd"/><path fill="#ffffff" d="m48.85991 109.27273q-1.40625 0 -1.40625 0q0 0 -0.3125 -1.140625l-16.890625 -60.468746q-0.578125 -1.9375 -0.578125 -1.9375q0 0 2.0625 0q1.28125 0 1.28125 0q0 0 0.265625 1.015625l14.78125 53.468746l0.875 3.25l0 0l1.015625 -3.25l15.796875 -53.249996q0.390625 -1.359375 0.390625 -1.359375q0 0 1.671875 0q1.71875 0 1.71875 0q0 0 0.40625 1.359375l15.703125 53.249996l0.96875 3.25l0 0l0.921875 -3.25l14.734375 -53.468746q0.265625 -1.015625 0.265625 -1.015625q0 0 1.28125 0q2.109375 0 2.109375 0q0 0 -0.609375 1.9375l-17.125 60.468746q-0.3125 1.140625 -0.3125 1.140625q0 0 -1.359375 0q-1.359375 0 -1.359375 0q0 0 -0.359375 -1.140625l-16.3125 -55.67187l-0.703125 -2.1875l0 0l-0.671875 2.15625l-16.53125 55.70312q-0.3125 1.140625 -0.3125 1.140625q0 0 -1.40625 0zm78.79283 0.078125q-9.59375 0 -16.125 -6.59375q-6.53125 -6.59375 -6.53125 -16.71875l0 0q0 -10.25 6.546875 -16.84375q6.5625 -6.609371 15.84375 -6.609371q9.375 0 15.25 5.937496q5.875 5.9375 5.921875 15.265625l0 0.09375q0 1.796875 0 1.796875q0 0 -1.84375 0l-39.953125 0l0 -2.890625l38.359375 0l0 0q-0.078125 -7.53125 -5.015625 -12.328125q-4.921875 -4.796875 -12.71875 -4.796875q-7.953125 0 -13.546875 5.765625q-5.578125 5.765625 -5.578125 14.609375l0 0q0 8.796875 5.6875 14.5q5.703125 5.6875 13.671875 5.6875q3.90625 0 6.890625 -1.109375q3.0 -1.125 5.28125 -3.0625q2.296875 -1.9375 3.671875 -4.15625q1.390625 -2.21875 1.390625 -2.21875q0 0 1.453125 0.640625q1.453125 0.625 1.453125 0.625q0 0 -1.40625 2.421875q-1.40625 2.421875 -4.25 4.890625q-2.828125 2.453125 -6.328125 3.78125q-3.5 1.3125 -8.125 1.3125zm30.321777 -0.609375q-1.625 0 -1.625 0q0 0 0 -1.453125l0 -60.10937q0 -1.453125 0 -1.453125q0 0 1.625 0q1.625 0 1.625 0q0 0 0 1.453125l0 60.10937q0 1.453125 0 1.453125q0 0 -1.625 0zm32.20334 0.609375q-9.671875 0 -16.0625 -6.609375q-6.375 -6.625 -6.375 -16.796875l0 0q0 -10.109375 6.421875 -16.734375q6.421875 -6.624996 16.0625 -6.624996q4.671875 0 8.34375 1.4843712q3.671875 1.46875 6.234375 3.90625q2.578125 2.4375 3.71875 4.796875q1.15625 2.359375 1.15625 2.359375q0 0 -1.546875 0.65625q-1.53125 0.65625 -1.53125 0.65625q0 0 -0.953125 -1.9375q-0.9375 -1.9375 -3.09375 -4.0625q-2.15625 -2.140625 -5.25 -3.484375q-3.078125 -1.34375 -7.03125 -1.34375q-8.140625 0 -13.671875 5.765625q-5.515625 5.765625 -5.515625 14.5625l0 0q0 8.84375 5.546875 14.59375q5.546875 5.734375 13.640625 5.734375q3.828125 0 6.703125 -1.25q2.890625 -1.25 5.21875 -3.515625q2.328125 -2.265625 3.421875 -4.390625q1.109375 -2.140625 1.109375 -2.140625q0 0 1.53125 0.65625q1.546875 0.65625 1.546875 0.65625q0 0 -1.140625 2.375q-1.140625 2.375 -3.828125 4.953125q-2.6875 2.578125 -6.203125 4.15625q-3.515625 1.578125 -8.453125 1.578125zm47.254654 0q-9.71875 0 -16.1875 -6.75q-6.46875 -6.75 -6.46875 -16.65625l0 0q0 -9.8125 6.46875 -16.5625q6.46875 -6.749996 16.1875 -6.749996q9.734375 0 16.234375 6.749996q6.5156097 6.75 6.5156097 16.5625l0 0q0 9.90625 -6.5156097 16.65625q-6.5 6.75 -16.234375 6.75zm0 -3.15625q8.234375 0 13.8125 -5.734375q5.5937347 -5.75 5.5937347 -14.515625l0 0q0 -8.65625 -5.5937347 -14.390625q-5.578125 -5.75 -13.8125 -5.75q-8.140625 0 -13.734375 5.75q-5.578125 5.734375 -5.578125 14.390625l0 0q0 8.765625 5.578125 14.515625q5.59375 5.734375 13.734375 5.734375zm32.521774 2.546875q-1.625 0 -1.625 0q0 0 0 -1.453125l0 -42.640625q0 -1.4531212 0 -1.4531212q0 0 1.578125 0q1.59375 0 1.59375 0q0 0 0 1.4531212l0 9.8125l0 0q1.4375 -5.3125 5.8437195 -8.59375q4.40625 -3.2812462 10.078125 -3.2812462q5.984375 0 10.0 3.1718712q4.03125 3.171875 4.5625 9.234375q1.84375 -5.890625 6.390625 -9.140625q4.5625 -3.2656212 10.109375 -3.2656212q7.34375 0 11.296875 4.468746q3.96875 4.46875 3.96875 11.859375l0 28.375q0 1.453125 0 1.453125q0 0 -1.578125 0q-1.625 0 -1.625 0q0 0 0 -1.453125l0 -27.59375q0 -6.5 -3.21875 -10.234375q-3.21875 -3.75 -9.421875 -3.75q-5.71875 0 -10.25 4.046875q-4.53125 4.046875 -5.015625 11.0l0 26.53125q0 1.453125 0 1.453125q0 0 -1.578125 0q-1.578125 0 -1.578125 0q0 0 0 -1.453125l0 -27.5q0 -7.03125 -3.390625 -10.546875q-3.390625 -3.53125 -9.375 -3.53125q-6.03125 0 -10.59375 4.453125q-4.5468445 4.4375 -4.5468445 11.953125l0 25.171875q0 1.453125 0 1.453125q0 0 -1.625 0zm93.757965 0.609375q-9.59375 0 -16.125 -6.59375q-6.53125 -6.59375 -6.53125 -16.71875l0 0q0 -10.25 6.546875 -16.84375q6.5625 -6.609371 15.84375 -6.609371q9.375 0 15.25 5.937496q5.875 5.9375 5.921875 15.265625l0 0.09375q0 1.796875 0 1.796875q0 0 -1.84375 0l-39.953125 0l0 -2.890625l38.359375 0l0 0q-0.078125 -7.53125 -5.015625 -12.328125q-4.921875 -4.796875 -12.71875 -4.796875q-7.953125 0 -13.546875 5.765625q-5.578125 5.765625 -5.578125 14.609375l0 0q0 8.796875 5.6875 14.5q5.703125 5.6875 13.671875 5.6875q3.90625 0 6.890625 -1.109375q3.0 -1.125 5.28125 -3.0625q2.296875 -1.9375 3.671875 -4.15625q1.390625 -2.21875 1.390625 -2.21875q0 0 1.453125 0.640625q1.453125 0.625 1.453125 0.625q0 0 -1.40625 2.421875q-1.40625 2.421875 -4.25 4.890625q-2.828125 2.453125 -6.328125 3.78125q-3.5 1.3125 -8.125 1.3125zm61.07486 0q-4.390625 0 -7.171875 -2.5625q-2.765625 -2.578125 -2.765625 -8.390625l0 -45.749996q0 -1.453125 0 -1.453125q0 0 1.578125 0q1.59375 0 1.59375 0q0 0 0 1.453125l0 45.70312q0 4.1875 1.890625 6.15625q1.890625 1.953125 5.3125 1.953125q1.40625 0 2.59375 -0.3125q1.203125 -0.3125 2.15625 -0.703125q0.96875 -0.40625 0.96875 -0.40625q0 0 0.015625 1.421875q0.03125 1.40625 0.03125 1.40625q0 0 -1.015625 0.4375q-1.0 0.4375 -2.390625 0.734375q-1.390625 0.3125 -2.796875 0.3125zm-16.8125 -43.375q-1.21875 0 -1.21875 0q0 0 0 -1.40625q0 -1.3749962 0 -1.3749962q0 0 1.21875 0l21.484375 0q1.234375 0 1.234375 0q0 0 0 1.3749962q0 1.40625 0 1.40625q0 0 -1.234375 0l-21.484375 0zm49.457428 43.375q-9.71875 0 -16.1875 -6.75q-6.46875 -6.75 -6.46875 -16.65625l0 0q0 -9.8125 6.46875 -16.5625q6.46875 -6.749996 16.1875 -6.749996q9.734375 0 16.234375 6.749996q6.515625 6.75 6.515625 16.5625l0 0q0 9.90625 -6.515625 16.65625q-6.5 6.75 -16.234375 6.75zm0 -3.15625q8.234375 0 13.8125 -5.734375q5.59375 -5.75 5.59375 -14.515625l0 0q0 -8.65625 -5.59375 -14.390625q-5.578125 -5.75 -13.8125 -5.75q-8.140625 0 -13.734375 5.75q-5.578125 5.734375 -5.578125 14.390625l0 0q0 8.765625 5.578125 14.515625q5.59375 5.734375 13.734375 5.734375z" fill-rule="nonzero"/><path fill="#000000" fill-opacity="0.0" d="m387.13647 292.88977l231.24408 0l0 45.259827l-231.24408 0z" fill-rule="evenodd"/></g></svg>
